<svg width="36" height="24" viewBox="0 0 36 24" fill="none" xmlns="http://www.w3.org/2000/svg">
<path d="M32.6572 23.0299H3.23899C1.8162 23.0299 0.660156 21.8739 0.660156 20.4511V2.60871C0.660156 1.18592 1.8162 0.0299072 3.23899 0.0299072H32.6572C34.08 0.0299072 35.236 1.18592 35.236 2.60871V20.4511C35.236 21.8791 34.08 23.0299 32.6572 23.0299Z" fill="#2177BC"/>
<path d="M6.19439 7.89709H9.54214C9.71476 8.28418 9.88737 8.67127 10.1594 9.28328C10.2012 8.69219 10.2221 8.34696 10.2483 7.93895H14.3231C14.6579 8.67127 15.0084 9.44021 15.4216 10.3399C15.8244 9.46114 16.1801 8.69743 16.541 7.9128H25.8048C26.1553 8.32081 26.5214 8.74972 26.919 9.2048C27.3165 8.74972 27.6775 8.34174 28.0541 7.91804H32.516C31.3704 9.33036 30.2981 10.6485 29.1996 11.9981C30.2824 13.3529 31.3442 14.6815 32.4741 16.0991H28.0436C27.6879 15.7068 27.2904 15.2673 26.8353 14.7599C26.3959 15.236 25.9827 15.6858 25.6008 16.0938H9.12888C8.9458 15.644 8.7418 15.147 8.5378 14.6396H7.23532C7.03132 15.1366 6.82733 15.6283 6.62332 16.1252H2.73682C3.90852 13.3529 5.04884 10.6381 6.19439 7.89709Z" fill="white"/>
<path d="M13.6379 9.027C14.2186 10.319 14.794 11.5849 15.4322 13.0077C16.0755 11.5796 16.6561 10.2876 17.2368 9.00085H19.5854V15.0215H17.9586V10.5335C17.2368 12.2858 16.6823 13.6406 16.1122 15.0215H14.7521C14.1663 13.6824 13.549 12.2753 12.801 10.5753V15.0163H9.88221C9.69913 14.556 9.49513 14.059 9.29112 13.5517H6.49264C6.2991 14.0277 6.10555 14.5037 5.89632 15.0215H4.37939C5.23202 12.9815 6.06373 11.0043 6.90066 9.00085H8.84652C9.58406 10.748 10.3425 12.5317 11.2422 14.6606V9.03224H13.6379V9.027V9.027Z" fill="#2177BC"/>
<path d="M26.9031 10.8996C27.4994 10.2144 28.0277 9.60761 28.556 8.99561H30.2299C29.3982 10.0313 28.6292 10.9833 27.8185 11.9876C28.5979 12.971 29.372 13.9492 30.2194 15.0215H28.5455C28.0277 14.4409 27.4628 13.808 26.8351 13.107C26.2387 13.7714 25.6738 14.3991 25.1037 15.0372H20.6836V9.01652H25.3181C25.7941 9.57622 26.3224 10.2039 26.9031 10.8996Z" fill="#2778BC"/>
<path d="M7 12.2021C7.27723 11.543 7.52307 10.9572 7.83692 10.2196C8.16646 10.9519 8.42801 11.543 8.72617 12.2021H7Z" fill="#F9FBFC"/>
<path d="M22.1694 11.4906V10.2666H24.5808C24.9784 10.7688 25.4387 11.3546 25.9356 11.9875C25.3968 12.61 24.8737 13.2116 24.3611 13.8027H22.1851V12.5577H24.1362V11.4854H22.1694V11.4906V11.4906Z" fill="white"/>
</svg>
