<svg width="35" height="24" viewBox="0 0 35 24" fill="none" xmlns="http://www.w3.org/2000/svg">
<path d="M32.2329 23.0299H2.81464C1.39185 23.0299 0.23584 21.8739 0.23584 20.4511V2.60871C0.23584 1.18592 1.39185 0.0299072 2.81464 0.0299072H32.2329C33.6556 0.0299072 34.8117 1.18592 34.8117 2.60871V20.4511C34.8117 21.8791 33.6556 23.0299 32.2329 23.0299Z" fill="white"/>
<path d="M28.3985 5.78906H27.1902H21.6089H20.4006L19.5846 6.70446L16.943 9.67557L16.127 10.591H14.9187H9.442H8.23367L9.03401 9.6651L9.41585 9.22572L10.2162 8.29986H9.00786H7.44905H6.57551C5.91119 8.29986 5.36719 8.85955 5.36719 9.53956V11.9301V12.1497C5.36719 12.8298 5.91119 13.3894 6.57551 13.3894H6.91553H19.5951H20.5052C21.1695 13.3894 22.0797 12.9762 22.5243 12.4688L24.6324 10.0731L28.3985 5.78906Z" fill="#005092"/>
<path d="M30.0046 2.99573C30.6689 2.99573 31.2129 3.55542 31.2129 4.23543V6.85085C31.2129 7.53086 30.6689 8.09056 30.0046 8.09056H29.3508H27.588H26.3797L27.1904 7.16996L27.5932 6.71488L28.404 5.79424H20.4061L16.1377 10.6014H8.19727L13.8937 4.16223L14.1081 3.91636C14.5528 3.4142 15.4629 2.99573 16.1272 2.99573H16.4097H30.0046V2.99573Z" fill="#FFDD00"/>
<path d="M8.0978 17.8356C8.0978 17.663 8.05597 17.5166 7.9775 17.391C7.89904 17.2655 7.7892 17.1713 7.65843 17.1033C7.7892 17.0406 7.89383 16.9412 7.96183 16.8104C8.03506 16.6849 8.07166 16.5384 8.07166 16.3762V16.2873C8.07166 16.0886 8.03505 15.9264 7.95659 15.7956C7.88336 15.6649 7.77352 15.5602 7.63752 15.4818C7.50152 15.4033 7.33936 15.3458 7.14582 15.3092C6.95751 15.2725 6.74303 15.2568 6.51288 15.2568C6.43441 15.2568 6.3507 15.2568 6.26701 15.2621C6.18332 15.2673 6.09964 15.2673 6.02118 15.2725C5.94271 15.2778 5.86949 15.283 5.80149 15.2882C5.73349 15.2935 5.68118 15.2987 5.6341 15.3092C5.53995 15.3249 5.47194 15.3562 5.43009 15.3981C5.38824 15.4399 5.37256 15.5184 5.37256 15.6282V18.6203C5.37256 18.7301 5.39348 18.8086 5.43533 18.8504C5.47717 18.8923 5.54515 18.9237 5.64454 18.9394C5.69162 18.9498 5.7544 18.9551 5.8224 18.9655C5.8904 18.9707 5.96886 18.976 6.04732 18.9812C6.12579 18.9864 6.2095 18.9917 6.29319 18.9917C6.37688 18.9969 6.46057 18.9969 6.54426 18.9969C6.75872 18.9969 6.95751 18.9812 7.14582 18.9498C7.33413 18.9184 7.50152 18.8609 7.63752 18.7772C7.77875 18.6935 7.88857 18.5784 7.97227 18.4372C8.05596 18.296 8.0978 18.1129 8.0978 17.8984V17.8356ZM7.25565 16.4233C7.25565 16.4756 7.24519 16.5279 7.2295 16.575C7.21381 16.6221 7.18767 16.6639 7.14582 16.7006C7.1092 16.7372 7.05687 16.7633 6.9941 16.7843C6.93133 16.8052 6.84766 16.8156 6.74827 16.8156H6.19904V15.963C6.21473 15.963 6.24087 15.963 6.27748 15.963C6.3141 15.963 6.3455 15.9578 6.38734 15.9578H6.49717H6.58088C6.83196 15.9578 7.00981 15.9892 7.1092 16.0519C7.20859 16.1147 7.26088 16.2141 7.26088 16.3501V16.4233H7.25565V16.4233ZM7.27659 17.888C7.27659 18.024 7.2295 18.1338 7.13011 18.207C7.03596 18.2803 6.85811 18.3221 6.60703 18.3221H6.52855C6.49194 18.3221 6.4501 18.3221 6.40825 18.3221C6.36641 18.3221 6.3298 18.3169 6.28795 18.3169H6.20424V17.3963H6.75351C6.95228 17.3963 7.08826 17.4381 7.1615 17.527C7.23996 17.616 7.27659 17.7153 7.27659 17.8356V17.888ZM10.7917 17.1138C10.7917 16.9307 10.7655 16.779 10.7132 16.6535C10.6609 16.528 10.5824 16.4233 10.4831 16.3449C10.3837 16.2664 10.2634 16.2036 10.1222 16.167C9.98093 16.1304 9.81875 16.1095 9.64091 16.1095C9.47875 16.1095 9.3166 16.1199 9.15968 16.1461C9.00275 16.167 8.88243 16.1932 8.78828 16.2141C8.72551 16.2298 8.69413 16.2664 8.69413 16.3239V16.7215C8.69413 16.7528 8.70458 16.779 8.72027 16.7895C8.73597 16.7999 8.75689 16.8104 8.78304 16.8104H8.80922C8.85107 16.8052 8.89813 16.8052 8.95567 16.7999C9.01321 16.7947 9.08121 16.7895 9.15444 16.7895C9.22767 16.7895 9.30614 16.7843 9.3846 16.7843C9.46306 16.7843 9.54677 16.779 9.62523 16.779C9.74031 16.779 9.82921 16.7999 9.89721 16.8418C9.95998 16.8836 9.9966 16.9778 9.9966 17.119V17.2969H9.72985C9.30616 17.2969 8.99753 17.3649 8.80922 17.4956C8.61568 17.6264 8.5215 17.8409 8.5215 18.1286V18.1757C8.5215 18.3378 8.54766 18.4738 8.59474 18.5784C8.64182 18.6883 8.70458 18.772 8.78304 18.84C8.8615 18.908 8.95043 18.9498 9.04982 18.9812C9.1492 19.0073 9.25384 19.023 9.36369 19.023C9.51015 19.023 9.64091 19.0021 9.74553 18.9655C9.85015 18.9237 9.95477 18.8714 10.0489 18.8034V18.8818C10.0489 18.908 10.0594 18.9289 10.0803 18.9498C10.1012 18.9707 10.1222 18.9812 10.1483 18.9812H10.6975C10.7237 18.9812 10.7446 18.9707 10.7655 18.9498C10.7865 18.9289 10.7969 18.908 10.7969 18.8818V17.1138H10.7917V17.1138ZM10.0123 18.3064C9.95477 18.3378 9.89201 18.3587 9.824 18.3849C9.756 18.4058 9.68798 18.4163 9.60952 18.4163C9.50491 18.4163 9.42644 18.4006 9.37413 18.3692C9.32182 18.3378 9.30092 18.275 9.30092 18.1652V18.1181C9.30092 18.0606 9.30614 18.0083 9.32183 17.9612C9.33229 17.9141 9.35845 17.8775 9.38984 17.8461C9.42122 17.8147 9.4683 17.7938 9.52061 17.7781C9.57815 17.7624 9.64616 17.7572 9.72985 17.7572H10.0123V18.3064V18.3064ZM13.8099 18.8661V17.2236C13.8099 17.0719 13.7994 16.9255 13.7733 16.7895C13.7471 16.6535 13.7053 16.5332 13.6425 16.4338C13.5797 16.3344 13.4908 16.2559 13.3757 16.1932C13.2607 16.1356 13.1194 16.1042 12.9416 16.1042C12.7846 16.1042 12.6434 16.1252 12.5231 16.1618C12.4028 16.1984 12.272 16.2664 12.1413 16.3606V16.2402C12.1413 16.2141 12.1308 16.1932 12.1099 16.1722C12.089 16.1513 12.068 16.1408 12.0419 16.1408H11.4926C11.4665 16.1408 11.4456 16.1513 11.4246 16.1722C11.4037 16.1932 11.3933 16.2141 11.3933 16.2402V18.8609C11.3933 18.887 11.4037 18.9132 11.4246 18.9341C11.4456 18.9551 11.4717 18.9655 11.4978 18.9655H12.0942C12.1203 18.9655 12.1412 18.9551 12.1622 18.9341C12.1831 18.9132 12.1936 18.887 12.1936 18.8609V16.9255C12.2772 16.8784 12.361 16.8418 12.4342 16.8104C12.5074 16.779 12.5859 16.7686 12.6539 16.7686C12.7271 16.7686 12.7899 16.7738 12.8369 16.7895C12.884 16.8052 12.9206 16.8313 12.9468 16.8679C12.973 16.9046 12.9939 16.9516 12.9991 17.0092C13.0096 17.0667 13.0148 17.1399 13.0148 17.2236V18.8609C13.0148 18.887 13.0253 18.9132 13.0462 18.9341C13.0671 18.9551 13.088 18.9655 13.1142 18.9655H13.7105C13.7367 18.9655 13.7628 18.9551 13.7838 18.9341C13.7942 18.9132 13.8099 18.8923 13.8099 18.8661ZM16.2318 18.8243V18.3849C16.2318 18.3587 16.2213 18.3378 16.2056 18.3221C16.1899 18.3064 16.1638 18.3012 16.1376 18.3012H16.1272C16.033 18.3116 15.9493 18.3169 15.8656 18.3273C15.7819 18.3326 15.6668 18.3378 15.5256 18.3378C15.4681 18.3378 15.4158 18.3274 15.3687 18.3117C15.3216 18.2907 15.2745 18.2646 15.2431 18.2175C15.2065 18.1704 15.1804 18.1129 15.1542 18.0396C15.1333 17.9664 15.1228 17.8722 15.1228 17.7676V17.3544C15.1228 17.2446 15.1333 17.1556 15.1542 17.0824C15.1751 17.0092 15.2065 16.9516 15.2431 16.9046C15.2798 16.8627 15.3216 16.8313 15.3687 16.8104C15.4158 16.7947 15.4681 16.7843 15.5256 16.7843C15.6668 16.7843 15.7767 16.7895 15.8656 16.7947C15.9493 16.7999 16.0382 16.8104 16.1272 16.8209H16.1376C16.1638 16.8209 16.1847 16.8156 16.2056 16.7999C16.2213 16.7842 16.2318 16.7633 16.2318 16.7372V16.2978C16.2318 16.2612 16.2213 16.235 16.2056 16.2193C16.1899 16.2036 16.1638 16.1932 16.1272 16.1827C16.0592 16.167 15.9702 16.1513 15.8604 16.1356C15.7505 16.1199 15.6198 16.1095 15.4733 16.1095C15.1228 16.1095 14.8456 16.2141 14.6363 16.4285C14.4271 16.643 14.3225 16.9516 14.3225 17.3544V17.7676C14.3225 18.1704 14.4271 18.479 14.6363 18.6935C14.8456 18.908 15.1228 19.0126 15.4733 19.0126C15.6198 19.0126 15.7505 19.0073 15.8604 18.9864C15.9702 18.9707 16.0592 18.9551 16.1272 18.9394C16.1638 18.9289 16.1899 18.9184 16.2056 18.9027C16.2213 18.8871 16.2318 18.8609 16.2318 18.8243ZM18.9623 17.3858C18.9623 17.187 18.9361 17.0092 18.8786 16.8522C18.8263 16.6953 18.7478 16.5593 18.6432 16.4495C18.5386 16.3396 18.413 16.2559 18.2561 16.1932C18.1044 16.1304 17.9266 16.1042 17.7278 16.1042C17.529 16.1042 17.3512 16.1356 17.1995 16.1932C17.0478 16.2559 16.917 16.3396 16.8124 16.4495C16.7078 16.5593 16.6293 16.6953 16.5718 16.8522C16.5195 17.0092 16.4881 17.187 16.4881 17.3858V17.731C16.4881 17.9298 16.5142 18.1024 16.5718 18.2646C16.6241 18.4215 16.7078 18.5575 16.8124 18.6674C16.917 18.7772 17.0478 18.8609 17.1995 18.9237C17.3512 18.9864 17.529 19.0126 17.7278 19.0126C17.9266 19.0126 18.1044 18.9812 18.2561 18.9237C18.4078 18.8609 18.5386 18.7772 18.6432 18.6674C18.7478 18.5575 18.8263 18.4215 18.8786 18.2646C18.9309 18.1076 18.9623 17.9298 18.9623 17.731V17.3858ZM18.1672 17.731C18.1672 18.1338 18.0207 18.3378 17.733 18.3378C17.5866 18.3378 17.4819 18.2855 17.4035 18.1861C17.3302 18.0815 17.2884 17.935 17.2884 17.731V17.3858C17.2884 17.187 17.325 17.0353 17.4035 16.9359C17.4767 16.8366 17.5866 16.7843 17.733 16.7843C18.0207 16.7843 18.1672 16.983 18.1672 17.3858V17.731ZM21.8915 18.8661V17.2236C21.8915 17.0719 21.8811 16.9255 21.8549 16.7895C21.8288 16.6535 21.7869 16.5332 21.7189 16.4338C21.6561 16.3344 21.5672 16.2559 21.4521 16.1932C21.3371 16.1356 21.1958 16.1042 21.018 16.1042C20.861 16.1042 20.7198 16.1252 20.5995 16.1618C20.4792 16.1984 20.3484 16.2664 20.2177 16.3606V16.2402C20.2177 16.2141 20.2072 16.1932 20.1863 16.1722C20.1654 16.1513 20.1444 16.1408 20.1183 16.1408H19.5691C19.5429 16.1408 19.522 16.1513 19.501 16.1722C19.4801 16.1932 19.4697 16.2141 19.4697 16.2402V18.8609C19.4697 18.887 19.4801 18.9132 19.501 18.9341C19.522 18.9551 19.5481 18.9655 19.5743 18.9655H20.1706C20.1967 18.9655 20.2177 18.9551 20.2386 18.9341C20.2595 18.9132 20.27 18.887 20.27 18.8609V16.9255C20.3537 16.8784 20.4374 16.8418 20.5106 16.8104C20.5838 16.779 20.6623 16.7686 20.7303 16.7686C20.8035 16.7686 20.8663 16.7738 20.9133 16.7895C20.9604 16.8052 20.9971 16.8313 21.0232 16.8679C21.0494 16.9046 21.0703 16.9516 21.0755 17.0092C21.086 17.0667 21.0912 17.1399 21.0912 17.2236V18.8609C21.0912 18.887 21.1017 18.9132 21.1226 18.9341C21.1435 18.9551 21.1644 18.9655 21.1906 18.9655H21.7869C21.8131 18.9655 21.834 18.9551 21.8601 18.9341C21.8811 18.9132 21.8915 18.8923 21.8915 18.8661ZM24.0414 18.8766V18.4947C24.0414 18.4424 24.0048 18.411 23.9368 18.411H23.6962C23.6229 18.411 23.5758 18.3953 23.5602 18.3692C23.5445 18.343 23.534 18.2803 23.534 18.1809V16.7476H23.9368C23.9629 16.7476 23.9839 16.7372 24.0048 16.7163C24.0257 16.6953 24.0362 16.6744 24.0362 16.6483V16.2455C24.0362 16.2193 24.0257 16.1984 24.0048 16.1775C23.9839 16.1565 23.9629 16.1461 23.9368 16.1461H23.534V15.623C23.534 15.5968 23.5235 15.5759 23.5079 15.5602C23.4922 15.5445 23.4712 15.5393 23.4451 15.5393H23.4294L22.8331 15.6439C22.8069 15.6491 22.786 15.6596 22.7651 15.6805C22.7442 15.6962 22.7337 15.7171 22.7337 15.7433V16.1461H22.3414C22.3152 16.1461 22.2891 16.1565 22.2681 16.1775C22.2472 16.1984 22.2368 16.2246 22.2368 16.2507V16.575C22.2368 16.6012 22.2472 16.6221 22.2681 16.643C22.2891 16.6587 22.3152 16.6744 22.3414 16.6796L22.7337 16.7424V18.1704C22.7337 18.343 22.7546 18.4843 22.786 18.5941C22.8226 18.704 22.8749 18.7929 22.9429 18.8504C23.0109 18.9132 23.0946 18.9551 23.1993 18.976C23.3039 18.9969 23.4189 19.0074 23.5549 19.0074C23.6282 19.0074 23.6909 19.0021 23.7485 18.9969C23.806 18.9917 23.8688 18.9812 23.9473 18.9655C24.01 18.9655 24.0414 18.9341 24.0414 18.8766ZM26.6673 17.1138C26.6673 16.9307 26.6411 16.779 26.5836 16.6535C26.5313 16.528 26.4528 16.4233 26.3534 16.3449C26.254 16.2664 26.1337 16.2036 25.9925 16.167C25.8513 16.1304 25.6891 16.1095 25.5113 16.1095C25.3491 16.1095 25.187 16.1199 25.03 16.1461C24.8731 16.167 24.7528 16.1932 24.6586 16.2141C24.5959 16.2298 24.5645 16.2664 24.5645 16.3239V16.7215C24.5645 16.7528 24.5749 16.779 24.5906 16.7895C24.6063 16.7999 24.6273 16.8104 24.6534 16.8104H24.6796C24.7214 16.8052 24.7685 16.8052 24.826 16.7999C24.8836 16.7947 24.9516 16.7895 25.0248 16.7895C25.098 16.7895 25.1765 16.7843 25.255 16.7843C25.3334 16.7843 25.4171 16.779 25.4956 16.779C25.6106 16.779 25.6996 16.7999 25.7676 16.8418C25.8303 16.8836 25.867 16.9778 25.867 17.119V17.2969H25.6002C25.1765 17.2969 24.8679 17.3649 24.6743 17.4956C24.4808 17.6264 24.3866 17.8409 24.3866 18.1286V18.1757C24.3866 18.3378 24.4076 18.4738 24.4599 18.5784C24.5069 18.6883 24.5697 18.772 24.6482 18.84C24.7266 18.908 24.8156 18.9498 24.915 18.9812C25.0143 19.0073 25.1189 19.023 25.2288 19.023C25.3753 19.023 25.506 19.0021 25.6107 18.9655C25.7153 18.9237 25.8199 18.8714 25.914 18.8034V18.8818C25.914 18.908 25.9245 18.9289 25.9454 18.9498C25.9664 18.9707 25.9873 18.9812 26.0134 18.9812H26.5627C26.5888 18.9812 26.6098 18.9707 26.6307 18.9498C26.6516 18.9289 26.6621 18.908 26.6621 18.8818L26.6673 17.1138ZM25.8879 18.3064C25.8303 18.3378 25.7676 18.3587 25.6996 18.3849C25.6316 18.4058 25.5584 18.4163 25.4851 18.4163C25.3805 18.4163 25.302 18.4006 25.2497 18.3692C25.1974 18.3378 25.1713 18.275 25.1713 18.1652V18.1181C25.1713 18.0606 25.1765 18.0083 25.1922 17.9612C25.2027 17.9141 25.2288 17.8775 25.2602 17.8461C25.2916 17.8147 25.3386 17.7938 25.3909 17.7781C25.4485 17.7624 25.5165 17.7572 25.6002 17.7572H25.8826V18.3064H25.8879V18.3064ZM29.0944 18.8243V18.3849C29.0944 18.3587 29.0839 18.3378 29.0682 18.3221C29.0473 18.3064 29.0264 18.3012 29.0002 18.3012H28.9898C28.8956 18.3116 28.8119 18.3169 28.7282 18.3273C28.6445 18.3326 28.5295 18.3378 28.3882 18.3378C28.3307 18.3378 28.2784 18.3274 28.2313 18.3117C28.1842 18.2907 28.1371 18.2646 28.1057 18.2175C28.0691 18.1704 28.043 18.1129 28.0221 18.0396C28.0011 17.9664 27.9907 17.8722 27.9907 17.7676V17.3544C27.9907 17.2446 28.0011 17.1556 28.0221 17.0824C28.043 17.0092 28.0691 16.9516 28.1057 16.9046C28.1424 16.8627 28.1842 16.8313 28.2313 16.8104C28.2784 16.7947 28.3307 16.7843 28.3882 16.7843C28.5295 16.7843 28.6445 16.7895 28.7282 16.7947C28.8119 16.7999 28.9008 16.8104 28.9898 16.8209H29.0002C29.0264 16.8209 29.0473 16.8156 29.0682 16.7999C29.0839 16.7842 29.0944 16.7633 29.0944 16.7372V16.2978C29.0944 16.2612 29.0839 16.235 29.0682 16.2193C29.0525 16.2036 29.0264 16.1932 28.9898 16.1827C28.9218 16.167 28.8329 16.1513 28.723 16.1356C28.6132 16.1199 28.4824 16.1095 28.3359 16.1095C27.9854 16.1095 27.7082 16.2141 27.499 16.4285C27.2898 16.643 27.1851 16.9516 27.1851 17.3544V17.7676C27.1851 18.1704 27.2898 18.479 27.499 18.6935C27.7082 18.908 27.9854 19.0126 28.3359 19.0126C28.4824 19.0126 28.6132 19.0073 28.723 18.9864C28.8329 18.9707 28.9218 18.9551 28.9898 18.9394C29.0264 18.9289 29.0525 18.9184 29.0682 18.9027C29.0839 18.8871 29.0944 18.8609 29.0944 18.8243ZM31.2129 18.8766V18.4947C31.2129 18.4424 31.1763 18.411 31.1083 18.411H30.8676C30.7944 18.411 30.7473 18.3953 30.7316 18.3692C30.7159 18.343 30.7055 18.2803 30.7055 18.1809V16.7476H31.1083C31.1344 16.7476 31.1554 16.7372 31.1763 16.7163C31.1972 16.6953 31.2077 16.6744 31.2077 16.6483V16.2455C31.2077 16.2193 31.1972 16.1984 31.1763 16.1775C31.1554 16.1565 31.1344 16.1461 31.1083 16.1461H30.7055V15.623C30.7055 15.5968 30.695 15.5759 30.6793 15.5602C30.6636 15.5445 30.6427 15.5393 30.6166 15.5393H30.6009L30.0045 15.6439C29.9784 15.6491 29.9575 15.6596 29.9365 15.6805C29.9156 15.6962 29.9052 15.7171 29.9052 15.7433V16.1461H29.5128C29.4867 16.1461 29.4606 16.1565 29.4396 16.1775C29.4187 16.1984 29.4083 16.2246 29.4083 16.2507V16.575C29.4083 16.6012 29.4187 16.6221 29.4396 16.643C29.4606 16.6587 29.4867 16.6744 29.5128 16.6796L29.9052 16.7424V18.1704C29.9052 18.343 29.9261 18.4843 29.9575 18.5941C29.9941 18.704 30.0464 18.7929 30.1144 18.8504C30.1824 18.9132 30.2661 18.9551 30.3707 18.976C30.4753 18.9969 30.5904 19.0074 30.7264 19.0074C30.7996 19.0074 30.8624 19.0021 30.9199 18.9969C30.9775 18.9917 31.0403 18.9812 31.1187 18.9655C31.1815 18.9655 31.2129 18.9341 31.2129 18.8766Z" fill="#005092"/>
</svg>
