<svg width="35" height="24" viewBox="0 0 35 24" fill="none" xmlns="http://www.w3.org/2000/svg">
<path d="M32.3842 23.0299H2.966C1.54322 23.0299 0.387207 21.8739 0.387207 20.4511V2.60871C0.387207 1.18592 1.54322 0.0299072 2.966 0.0299072H32.3842C33.807 0.0299072 34.963 1.18592 34.963 2.60871V20.4511C34.963 21.8791 33.807 23.0299 32.3842 23.0299Z" fill="white"/>
<path d="M14.0606 12.8088H10.6919V18.4006H14.0606V12.8088Z" fill="#020203"/>
<path d="M14.312 10.0104C14.312 11.0618 13.4593 11.9196 12.4079 11.9196C11.3565 11.9196 10.5039 11.067 10.5039 10.0104C10.5039 8.95373 11.3565 8.10632 12.4079 8.10632C13.4593 8.10632 14.312 8.95896 14.312 10.0104Z" fill="#020203"/>
<path d="M20.2118 3.71241C22.5552 3.71241 24.5063 4.34535 25.8559 5.54844C27.3833 6.90846 28.1574 8.96417 28.1574 11.6581C28.1574 17.004 25.5577 19.6037 20.2118 19.6037H9.57229V3.71241H20.2118ZM20.4367 2.49365H8.35352V20.8225H20.4367V20.8173C23.0783 20.7806 25.1654 20.1268 26.651 18.8609C28.4556 17.3231 29.371 14.9012 29.371 11.6529C29.371 10.0993 29.1304 8.70787 28.6544 7.51524C28.1993 6.37492 27.5298 5.40198 26.6614 4.63305C25.134 3.27303 22.9842 2.54073 20.4367 2.49365Z" fill="#020203"/>
<path d="M19.8776 18.4058H15.604V5.1875H19.8776H19.705C23.2672 5.1875 27.0595 6.59462 27.0595 11.815C27.0595 17.3335 23.2672 18.4058 19.705 18.4058H19.8776Z" fill="#CC0567"/>
<path d="M15.5096 9.14191V11.2447H15.9909C16.1687 11.2447 16.2995 11.2343 16.3779 11.2133C16.4825 11.1872 16.5715 11.1453 16.6395 11.0826C16.7075 11.0198 16.765 10.9204 16.8069 10.7792C16.8487 10.6379 16.8696 10.4444 16.8696 10.1985C16.8696 9.9527 16.8487 9.76438 16.8069 9.63361C16.765 9.50284 16.7022 9.39824 16.6238 9.32501C16.5453 9.25178 16.4459 9.19945 16.3256 9.17329C16.2367 9.15237 16.0588 9.14191 15.7973 9.14191H15.5096ZM14.8662 8.60315H16.0379C16.3047 8.60315 16.5035 8.62407 16.6447 8.66592C16.833 8.71823 16.9899 8.81761 17.1259 8.95884C17.2619 9.10007 17.3613 9.27268 17.4293 9.47145C17.4973 9.67546 17.5339 9.92654 17.5339 10.2247C17.5339 10.4862 17.5026 10.7112 17.4346 10.8995C17.3561 11.1297 17.241 11.3179 17.0946 11.4644C16.9847 11.5742 16.833 11.658 16.6447 11.7155C16.5035 11.7626 16.3152 11.7835 16.0745 11.7835H14.8662V8.60315Z" fill="white"/>
<path d="M16.0433 8.69211C16.2997 8.69211 16.4932 8.71303 16.624 8.74964C16.7966 8.80195 16.9431 8.89088 17.0634 9.01642C17.1889 9.14719 17.2831 9.30934 17.3458 9.49765C17.4138 9.69119 17.4452 9.93181 17.4452 10.2195C17.4452 10.4706 17.4138 10.6903 17.3511 10.8682C17.2778 11.0826 17.168 11.2604 17.032 11.3964C16.9326 11.4958 16.7914 11.5743 16.6135 11.6318C16.4827 11.6737 16.2997 11.6946 16.0695 11.6946H14.9501V8.68688H16.0433V8.69211V8.69211ZM14.7827 8.51428V11.8672H16.08C16.3258 11.8672 16.5246 11.8411 16.6763 11.794C16.8803 11.7312 17.0424 11.6371 17.1628 11.522C17.3197 11.3703 17.44 11.1715 17.5237 10.9257C17.5917 10.7269 17.6283 10.4915 17.6283 10.2195C17.6283 9.91612 17.5917 9.64935 17.5184 9.44012C17.4452 9.22565 17.3354 9.04259 17.1941 8.89612C17.0529 8.74443 16.8751 8.63982 16.6763 8.57705C16.5298 8.5352 16.3206 8.51428 16.0486 8.51428H14.7827Z" fill="white"/>
<path d="M15.7975 9.23096C16.1166 9.23096 16.2474 9.24665 16.3049 9.25711C16.4095 9.27803 16.4932 9.32511 16.5612 9.38265C16.6292 9.44542 16.6815 9.53435 16.7182 9.65466C16.76 9.77497 16.7809 9.95803 16.7809 10.1934C16.7809 10.4288 16.76 10.6171 16.7182 10.7479C16.6815 10.8734 16.6292 10.9624 16.5769 11.0147C16.5194 11.067 16.4461 11.1036 16.352 11.1245C16.2788 11.1454 16.1532 11.1507 15.9858 11.1507H15.5935V9.22049H15.7975V9.23096V9.23096ZM15.4209 9.0531V11.3285H15.9911C16.1794 11.3285 16.3154 11.318 16.3991 11.2971C16.5194 11.2657 16.6188 11.2187 16.6972 11.1454C16.7809 11.0722 16.8437 10.9571 16.8908 10.8002C16.9379 10.6485 16.9588 10.4497 16.9588 10.1934C16.9588 9.93711 16.9379 9.74356 16.8908 9.60233C16.8437 9.45587 16.7757 9.3408 16.6868 9.25711C16.5978 9.17342 16.4828 9.11587 16.3468 9.08448C16.2526 9.06356 16.0695 9.0531 15.8028 9.0531H15.4209Z" fill="white"/>
<path d="M18.2607 11.7835V8.60315H20.6146V9.14191H18.8989V9.84809H20.4943V10.3869H18.8989V11.2447H20.6721V11.7835H18.2607Z" fill="white"/>
<path d="M20.5258 8.69211V9.05828H18.8153V9.93705H20.4107V10.3032H18.8153V11.3337H20.5885V11.6998H18.3445V8.69211H20.5258V8.69211ZM18.1719 8.51428V11.8672H20.7611V11.1558H18.9879V10.4706H20.5833V9.75919H18.9879V9.2309H20.6984V8.51949H18.1719V8.51428Z" fill="white"/>
<path d="M23.0838 10.5229L22.6444 9.34592L22.2155 10.5229H23.0838ZM24.266 11.7835H23.5651L23.2878 11.0616H22.0167L21.7552 11.7835H21.0752L22.3097 8.60315H22.9949L24.266 11.7835Z" fill="white"/>
<path d="M22.9322 8.69211C22.974 8.79673 24.0464 11.4801 24.1353 11.6998H23.6227C23.5861 11.6057 23.3454 10.978 23.3454 10.978H21.954C21.954 10.978 21.7239 11.6005 21.6925 11.6998H21.2008C21.2845 11.4854 22.3306 8.79673 22.3673 8.69211H22.9322ZM22.2522 8.51428L20.9497 11.8672H21.818C21.818 11.8672 22.0482 11.2395 22.0796 11.1454H23.2304C23.267 11.2395 23.5076 11.8672 23.5076 11.8672H24.3968L23.0577 8.51428H22.2522Z" fill="white"/>
<path d="M22.6443 9.59711C22.7385 9.85342 22.9006 10.2876 22.9582 10.4393H22.3409C22.3932 10.2876 22.5502 9.85342 22.6443 9.59711ZM22.0898 10.6119H23.2093L22.6443 9.09497L22.0898 10.6119Z" fill="white"/>
<path d="M24.7993 11.7836V8.62939H25.4427V11.2448H27.0381V11.7836H24.7993Z" fill="white"/>
<path d="M25.354 8.71836V11.3338H26.9494V11.6999H24.8832V8.71836H25.354ZM24.7158 8.54053V11.8673H27.1272V11.1559H25.5318V8.54053H24.7158Z" fill="white"/>
</svg>
