<svg xmlns="http://www.w3.org/2000/svg" viewBox="0 0 19.5 17.19"><defs><style>.cls-1{fill:#17553e;}</style></defs><title>Ресурс 1</title><g id="Слой_2" data-name="Слой 2"><g id="Слой_1-2" data-name="Слой 1"><path class="cls-1" d="M16.2,1.08a4.54,4.54,0,0,1,2.38,2.66,4.54,4.54,0,0,1-.16,3.59,11.93,11.93,0,0,1-1.84,2.38q-1.41,1.52-2.93,3t-2.71,2.56L9.75,16.35,8.56,15.28Q7.37,14.2,5.85,12.72t-2.93-3A11.9,11.9,0,0,1,1.08,7.33,4.54,4.54,0,0,1,.92,3.74,4.53,4.53,0,0,1,3.31,1.08,4.54,4.54,0,0,1,6.9.92,4.52,4.52,0,0,1,9.56,3.35c0,.08.06.16.1.25a1.71,1.71,0,0,1,.1.33,1.64,1.64,0,0,1,.1-.33c0-.09.07-.18.1-.25A4.51,4.51,0,0,1,12.6.92,4.54,4.54,0,0,1,16.2,1.08Zm.51,6.21a3.72,3.72,0,0,0,.51-3.09,3.31,3.31,0,0,0-1.8-2,2.76,2.76,0,0,0-2.87.43A6.17,6.17,0,0,0,10.42,5c0,.08-.12.12-.27.12s-.25,0-.27.12c0-.08-.15-.12-.37-.12s-.35,0-.37-.12A6.13,6.13,0,0,0,7,2.66a2.74,2.74,0,0,0-2.75-.49A3.36,3.36,0,0,0,2.39,4.22a3.39,3.39,0,0,0,.37,3A12.76,12.76,0,0,0,4.3,9q1.15,1.19,2.38,2.38t2.21,2.07l1,.88,0,.12.92-.88q.92-.88,2.11-2.07t2.3-2.4A11.57,11.57,0,0,0,16.71,7.29ZM16.16,7a3.13,3.13,0,0,0,.46-2.57,2.7,2.7,0,0,0-1.46-1.63,2.18,2.18,0,0,0-2.25.37A5.57,5.57,0,0,0,11,5.29L10.42,5l.59.2a.81.81,0,0,1-.87.54q.22,0,.32-.31L9.87,7.24,9.28,5.46a.44.44,0,0,0,.29.31H9.5q-.78,0-1-.54L9.13,5l-.57.27A5.52,5.52,0,0,0,6.68,3.17a2.16,2.16,0,0,0-2.15-.42A2.76,2.76,0,0,0,3,4.44,2.8,2.8,0,0,0,3.3,6.9l-.54.32.53-.33A12.3,12.3,0,0,0,4.75,8.59Q5.9,9.78,7.12,11T9.31,13l1.1,1,.09.27-.59.2L9.48,14l.92-.88q.91-.87,2.1-2.06T14.78,8.7A11.08,11.08,0,0,0,16.16,7Zm1.09.61a12.13,12.13,0,0,1-1.55,2Q14.58,10.77,13.38,12t-2.12,2.08L9.63,15.61l-.35-1.05.59-.2-.42.46-1-.88q-1-.89-2.22-2.09t-2.4-2.4A13.36,13.36,0,0,1,2.23,7.54h0A4,4,0,0,1,1.8,4,4,4,0,0,1,4,1.6a3.32,3.32,0,0,1,3.36.55A6.75,6.75,0,0,1,9.69,4.76l0,0v0a.45.45,0,0,0-.29-.31H9.5q.78,0,1,.54l-.59.2-.59-.2a.81.81,0,0,1,.87-.54q-.22,0-.32.31v0l0,0a6.79,6.79,0,0,1,2.34-2.63,3.35,3.35,0,0,1,3.49-.49A3.92,3.92,0,0,1,17.8,4a4.3,4.3,0,0,1-.56,3.6ZM16.47.52a5.14,5.14,0,0,1,2.7,3A5.14,5.14,0,0,1,19,7.59h0A12.42,12.42,0,0,1,17,10.14q-1.42,1.54-3,3t-2.73,2.58L9.75,17.19,8.14,15.74q-1.2-1.08-2.73-2.58t-3-3A12.38,12.38,0,0,1,.52,7.61h0A5.14,5.14,0,0,1,.34,3.52,5.14,5.14,0,0,1,3,.51,5.14,5.14,0,0,1,7.11.34a5.12,5.12,0,0,1,3,2.75v.07l.08.21a2.32,2.32,0,0,1,.14.46l-.61.12-.61-.12a2.31,2.31,0,0,1,.14-.46l.08-.21v0l0,0a5.12,5.12,0,0,1,3-2.75,5.14,5.14,0,0,1,4.07.18Zm-.53,1.13a4.09,4.09,0,0,0-5.42,2l-.57-.26.59.2c0,.09-.07.2-.12.3a1.07,1.07,0,0,0-.06.21H9.14a1.14,1.14,0,0,0-.06-.21C9,3.74,9,3.64,9,3.54l.59-.2L9,3.61a3.91,3.91,0,0,0-2.3-2.1,3.94,3.94,0,0,0-3.12.13,3.92,3.92,0,0,0-2.06,2.3,3.93,3.93,0,0,0,.13,3.12l-.57.26.56-.28A11.45,11.45,0,0,0,3.38,9.29q1.39,1.51,2.91,3T9,14.82l1.19,1.07-.42.46-.42-.46,1.19-1.07q1.18-1.07,2.7-2.54t2.91-3a11.49,11.49,0,0,0,1.74-2.24l.56.28-.57-.26A3.94,3.94,0,0,0,18,3.95a3.93,3.93,0,0,0-2.06-2.3Z"/></g></g></svg>