<svg width="36" height="24" viewBox="0 0 36 24" fill="none" xmlns="http://www.w3.org/2000/svg">
<path d="M32.9599 23.0299H3.54172C2.11893 23.0299 0.962891 21.8739 0.962891 20.4511V2.60871C0.962891 1.18592 2.11893 0.0299072 3.54172 0.0299072H32.9599C34.3827 0.0299072 35.5387 1.18592 35.5387 2.60871V20.4511C35.5387 21.8791 34.3827 23.0299 32.9599 23.0299Z" fill="white"/>
<path d="M12.0574 19.2427C12.0783 18.9236 12.3503 18.683 12.6642 18.7039C12.9833 18.7248 13.2239 18.9968 13.203 19.3107C13.1873 19.6141 12.9362 19.8495 12.6328 19.8547C12.3189 19.8599 12.0574 19.6089 12.0522 19.295C12.0522 19.2793 12.0522 19.2584 12.0574 19.2427ZM13.5953 19.2427V18.2907H13.1821V18.5208C13.0408 18.3377 12.8159 18.2331 12.5857 18.2436C12.0365 18.2436 11.5919 18.6882 11.5919 19.2375C11.5919 19.7867 12.0365 20.2313 12.5857 20.2313C12.8159 20.2418 13.0408 20.1372 13.1821 19.9541V20.1843H13.5953V19.2427ZM27.5825 19.2427C27.6034 18.9236 27.8755 18.683 28.1893 18.7039C28.5084 18.7248 28.749 18.9968 28.7281 19.3107C28.7124 19.6141 28.4613 19.8495 28.1579 19.8547C27.8441 19.8599 27.5825 19.6036 27.5773 19.2898C27.5825 19.2741 27.5825 19.2584 27.5825 19.2427ZM29.7742 20.0535V20.1005H29.8161C29.8266 20.1058 29.8318 20.1058 29.8422 20.1005C29.8475 20.0953 29.8475 20.0901 29.8422 20.0849C29.8475 20.0796 29.8475 20.0744 29.8422 20.0692C29.8318 20.0639 29.8266 20.0639 29.8161 20.0692L29.7742 20.0535ZM29.8161 20.0169C29.837 20.0169 29.8527 20.0221 29.8684 20.0325C29.8789 20.043 29.8893 20.0587 29.8841 20.0744C29.8841 20.0849 29.8789 20.1005 29.8684 20.111C29.8579 20.1215 29.8423 20.1267 29.8266 20.1267L29.8841 20.1947H29.837L29.7847 20.1267H29.769V20.1947H29.7324V20.0221L29.8161 20.0169ZM29.8056 20.2575C29.8266 20.2575 29.8475 20.2522 29.8632 20.247C29.8789 20.2418 29.8946 20.2313 29.9103 20.2156C29.9626 20.1581 29.9626 20.0744 29.9103 20.0169C29.8946 20.0012 29.8789 19.9907 29.8632 19.9855C29.8475 19.975 29.8266 19.975 29.8056 19.975C29.7847 19.975 29.769 19.9802 29.7481 19.9855C29.7324 19.9907 29.7115 20.0012 29.701 20.0169C29.6487 20.0744 29.6487 20.1581 29.701 20.2156C29.7167 20.2313 29.7324 20.2418 29.7481 20.247C29.769 20.2575 29.7899 20.2627 29.8109 20.2575H29.8056ZM29.8056 19.9175C29.8318 19.9175 29.858 19.9227 29.8841 19.9331C29.905 19.9436 29.9259 19.9541 29.9469 19.975C29.9626 19.9907 29.9783 20.0116 29.9887 20.0325C30.0097 20.0796 30.0097 20.1319 29.9887 20.179C29.9783 20.1999 29.9626 20.2209 29.9469 20.2365C29.9312 20.2522 29.9103 20.2679 29.8841 20.2784C29.858 20.2889 29.837 20.2941 29.8056 20.2941C29.7272 20.2941 29.6592 20.247 29.6278 20.179C29.6069 20.1319 29.6069 20.0796 29.6278 20.0325C29.6383 20.0116 29.6539 19.9907 29.6696 19.975C29.6853 19.9593 29.7062 19.9436 29.7324 19.9331C29.7585 19.9227 29.7847 19.9175 29.8161 19.9175H29.8056ZM29.1152 19.2427V17.527H28.7176V18.5208C28.5764 18.3377 28.3515 18.2331 28.1213 18.2436C27.5721 18.2436 27.1274 18.6882 27.1274 19.2375C27.1274 19.7867 27.5721 20.2313 28.1213 20.2313C28.3567 20.2418 28.5764 20.1372 28.7176 19.9541V20.1843H29.1152V19.2427ZM18.7372 18.615C18.9987 18.6098 19.2132 18.8137 19.2184 19.0753H18.2246C18.2402 18.8085 18.4652 18.6045 18.732 18.615H18.7372ZM18.7372 18.2436C18.188 18.2488 17.7486 18.7039 17.7538 19.2531C17.7643 19.8024 18.2141 20.2418 18.7633 20.2365C19.051 20.2522 19.3335 20.1581 19.5532 19.9802L19.3544 19.6716C19.1975 19.7971 19.004 19.8704 18.8 19.8704C18.5175 19.8965 18.2612 19.6873 18.2298 19.4048H19.6421V19.2479C19.6421 18.6516 19.2707 18.2541 18.7372 18.2541V18.2436ZM23.7379 19.2427C23.7536 18.9236 24.0308 18.683 24.3446 18.7039C24.6637 18.7248 24.9044 18.9968 24.8834 19.3107C24.8677 19.6141 24.6166 19.8495 24.3133 19.8547C23.9994 19.8599 23.7379 19.6036 23.7326 19.2898C23.7326 19.2688 23.7326 19.2531 23.7379 19.2427ZM25.2757 19.2427V18.2959H24.8625V18.5261C24.7213 18.343 24.4963 18.2384 24.2662 18.2488C23.717 18.2488 23.2723 18.6934 23.2723 19.2427C23.2723 19.7919 23.717 20.2365 24.2662 20.2365C24.5016 20.247 24.7213 20.1424 24.8625 19.9593V20.1895H25.2757V19.2427ZM21.3997 19.2427C21.3787 19.7762 21.7972 20.2209 22.3255 20.2365C22.3569 20.2365 22.3831 20.2365 22.4145 20.2365C22.6603 20.247 22.9062 20.1685 23.0997 20.0116L22.9009 19.6768C22.7597 19.7867 22.5819 19.8442 22.404 19.8495C22.0692 19.8233 21.8182 19.5252 21.8443 19.1904C21.8705 18.8922 22.1059 18.6516 22.404 18.6307C22.5819 18.6307 22.7597 18.6935 22.9009 18.8033L23.0997 18.4685C22.9062 18.3116 22.6655 18.2279 22.4145 18.2436C21.8861 18.2122 21.4311 18.6202 21.3997 19.1485C21.3997 19.1799 21.3997 19.2061 21.3997 19.2375V19.2427V19.2427ZM26.7351 18.2436C26.5311 18.2384 26.3376 18.343 26.233 18.5208V18.2907H25.825V20.1947H26.2382V19.1276C26.2382 18.8138 26.3742 18.6359 26.6357 18.6359C26.7247 18.6359 26.8136 18.6516 26.8921 18.683L27.0176 18.2855C26.9234 18.2488 26.824 18.2331 26.7247 18.2331L26.7351 18.2436ZM15.6405 18.4424C15.4051 18.3011 15.1384 18.2331 14.8664 18.2436C14.3851 18.2436 14.0713 18.4737 14.0713 18.8504C14.0713 19.159 14.3014 19.3525 14.7304 19.4101L14.9291 19.4362C15.1541 19.4676 15.2639 19.5251 15.2639 19.635C15.2639 19.7815 15.1122 19.8651 14.8297 19.8651C14.6048 19.8704 14.3799 19.8024 14.1968 19.6664L13.9981 19.9907C14.2387 20.1581 14.5264 20.247 14.8245 20.2365C15.3737 20.2365 15.6928 19.9802 15.6928 19.6141C15.6928 19.2531 15.4418 19.1014 15.0285 19.0439L14.8297 19.0178C14.6519 18.9916 14.5054 18.9602 14.5054 18.8295C14.5054 18.7039 14.6414 18.6045 14.8664 18.6045C15.0756 18.6098 15.2796 18.6621 15.4627 18.7667L15.6405 18.4424ZM20.9812 18.2436C20.7772 18.2384 20.5837 18.343 20.479 18.5208V18.2907H20.0711V20.1947H20.4843V19.1276C20.4843 18.8138 20.6203 18.6359 20.8818 18.6359C20.9707 18.6359 21.0597 18.6516 21.1434 18.683L21.2689 18.2855C21.1747 18.2488 21.0754 18.2331 20.976 18.2331L20.9812 18.2436ZM17.4504 18.2907H16.7704V17.7153H16.3519V18.2907H15.9753V18.6673H16.3624V19.5408C16.3624 19.9802 16.535 20.247 17.0215 20.247C17.2045 20.247 17.3824 20.1947 17.5393 20.1005L17.419 19.7448C17.3092 19.8128 17.1836 19.8495 17.0529 19.8547C16.8541 19.8547 16.7756 19.7291 16.7756 19.5356V18.6673H17.4504V18.2907ZM11.2623 20.1947V19.0021C11.2885 18.6098 10.9956 18.275 10.6033 18.2436C10.5719 18.2436 10.5405 18.2436 10.5143 18.2436C10.2475 18.2279 9.99124 18.3535 9.84478 18.5836C9.714 18.3639 9.47338 18.2331 9.21707 18.2436C8.99214 18.2331 8.78291 18.3377 8.65737 18.5261V18.2907H8.24414V20.1947H8.6626V19.1485C8.63122 18.9027 8.79859 18.6778 9.04444 18.6464C9.0706 18.6412 9.102 18.6411 9.12815 18.6411C9.40539 18.6411 9.54138 18.819 9.54138 19.1433V20.1999H9.95984V19.1433C9.92845 18.8974 10.1011 18.6725 10.3469 18.6411C10.3731 18.6359 10.3992 18.6359 10.4254 18.6359C10.7079 18.6359 10.8439 18.8138 10.8439 19.1381V20.1947H11.2623Z" fill="#231F20"/>
<path d="M21.7762 3.78564H15.5044V15.0581H21.7762V3.78564Z" fill="#EC621D"/>
<path d="M15.9018 9.42448C15.9018 7.2223 16.9114 5.14564 18.6376 3.78563C15.5252 1.3376 11.0162 1.87637 8.56819 4.99395C6.12016 8.1063 6.66417 12.6153 9.77651 15.0633C12.3762 17.1086 16.0378 17.1086 18.6376 15.0633C16.9061 13.6981 15.8966 11.6214 15.9018 9.42448Z" fill="#E41522"/>
<path d="M30.2397 9.42451C30.2397 13.3843 27.0279 16.596 23.0682 16.596C21.4623 16.596 19.9036 16.0572 18.6377 15.0633C21.75 12.6153 22.2888 8.11156 19.846 4.99398C19.4956 4.54413 19.0875 4.14135 18.6377 3.78566C21.75 1.33763 26.259 1.87639 28.7071 4.98874C29.7009 6.2546 30.2397 7.81342 30.2397 9.42451Z" fill="#F59D21"/>
<path d="M29.4136 13.583V13.6301H29.513V13.8603H29.5548V13.6301H29.649V13.583H29.4136ZM29.9419 13.583L29.8582 13.7818L29.7745 13.583H29.7117V13.8603H29.764V13.651L29.8425 13.8341H29.8948L29.9733 13.651V13.8603H30.0151V13.583H29.9419Z" fill="#F59D21"/>
</svg>
