<svg width="36" height="24" viewBox="0 0 36 24" fill="none" xmlns="http://www.w3.org/2000/svg">
<path d="M32.8086 23.0299H3.39032C1.96753 23.0299 0.811523 21.8739 0.811523 20.4511V2.60871C0.811523 1.18592 1.96753 0.0299072 3.39032 0.0299072H32.8086C34.2314 0.0299072 35.3874 1.18592 35.3874 2.60871V20.4511C35.3874 21.8791 34.2366 23.0299 32.8086 23.0299Z" fill="white"/>
<path d="M5.44105 9.84814H7.49676C8.60047 9.84814 9.01369 10.4078 8.95092 11.2291C8.8463 12.5838 8.02508 13.3319 6.9423 13.3319H6.39307C6.2466 13.3319 6.14196 13.4313 6.10534 13.698L5.86998 15.2516C5.85429 15.351 5.80197 15.4137 5.7235 15.419H4.43671C4.3164 15.419 4.27455 15.3248 4.30594 15.126L5.09056 10.1463C5.11672 9.9423 5.22659 9.84814 5.44105 9.84814Z" fill="#009FE3"/>
<path d="M20.5316 11.2866H19.8464C19.7052 11.2866 19.6476 11.3912 19.6895 11.522L20.5474 14.0275L19.7052 15.2201C19.6372 15.3195 19.6895 15.4085 19.7889 15.4085H20.563C20.6781 15.4085 20.7357 15.3771 20.7932 15.2934L23.4243 11.5167C23.5028 11.4017 23.4661 11.2813 23.3354 11.2761H22.6031C22.4775 11.2761 22.4252 11.3284 22.3572 11.4278L21.2587 13.018L20.7723 11.4226C20.7357 11.3389 20.6624 11.2866 20.5316 11.2866ZM17.1107 13.6195C16.6608 13.6195 16.347 13.2586 16.4097 12.8192C16.4777 12.3798 16.8962 12.0189 17.3461 12.0189C17.7959 12.0189 18.1098 12.3798 18.047 12.8192C17.9842 13.2586 17.5605 13.6195 17.1107 13.6195ZM17.6808 14.0223C17.7488 13.9595 17.8221 13.9282 17.8116 14.0066L17.7855 14.1949C17.775 14.2943 17.8116 14.3466 17.9006 14.3466H18.5806C18.6956 14.3466 18.7532 14.2995 18.7793 14.1217L19.1978 11.4958C19.2187 11.365 19.1873 11.297 19.0879 11.297H18.3399C18.2719 11.297 18.2406 11.3336 18.2249 11.4383L18.1987 11.6004C18.183 11.6841 18.1464 11.6998 18.1098 11.6161C17.9842 11.318 17.6599 11.182 17.2048 11.1924C16.1587 11.2134 15.4473 12.0084 15.3741 13.0284C15.3165 13.8183 15.8815 14.4355 16.6242 14.4355C17.163 14.4303 17.4088 14.2734 17.6808 14.0223ZM13.1091 11.9247H13.7316C14.1186 11.909 14.3802 11.6423 14.4063 11.1506C14.422 10.8524 14.218 10.638 13.899 10.638L13.3131 10.6432L13.1091 11.9247ZM14.354 9.75916C15.0497 9.75916 15.6879 10.1358 15.599 11.0721C15.4944 12.181 14.898 12.8035 13.9565 12.8035H13.1352C13.0149 12.8035 12.9626 12.8977 12.9313 13.0964L12.7743 14.106C12.7482 14.2577 12.6697 14.3361 12.5546 14.3361H11.7909C11.6706 14.3361 11.6288 14.2577 11.6549 14.0851L12.2878 10.0312C12.3192 9.8324 12.3977 9.75916 12.5285 9.75916H14.354V9.75916Z" fill="#143A84"/>
<path d="M32.0501 14.3466H31.2655C31.2027 14.3466 31.1609 14.2995 31.1714 14.2367L31.8618 9.87425C31.8723 9.81671 31.9298 9.76439 31.9926 9.76439H32.7772C32.84 9.76439 32.8818 9.81148 32.8714 9.87425L32.1809 14.2367C32.1704 14.2995 32.1077 14.3466 32.0501 14.3466ZM28.9116 13.6195C28.4618 13.6195 28.1479 13.2586 28.2107 12.8192C28.2787 12.3798 28.6972 12.0189 29.147 12.0189C29.5969 12.0189 29.9107 12.3798 29.8479 12.8192C29.7852 13.2586 29.3667 13.6195 28.9116 13.6195ZM29.4818 14.0223C29.5498 13.9595 29.623 13.9282 29.6126 14.0066L29.5864 14.1949C29.5759 14.2943 29.6126 14.3466 29.7015 14.3466H30.3815C30.4966 14.3466 30.5541 14.2995 30.5803 14.1217L30.9987 11.4958C31.0197 11.365 30.9883 11.297 30.8889 11.297H30.1409C30.0729 11.297 30.0415 11.3336 30.0258 11.4383L29.9996 11.6004C29.9839 11.6841 29.9473 11.6998 29.9107 11.6161C29.7852 11.318 29.4609 11.182 29.0058 11.1924C27.9596 11.2134 27.2535 12.0084 27.175 13.0284C27.1175 13.8183 27.6824 14.4355 28.4252 14.4355C28.9692 14.4303 29.2098 14.2734 29.4818 14.0223ZM24.91 11.9247H25.5325C25.9196 11.909 26.1811 11.6423 26.2073 11.1506C26.223 10.8524 26.019 10.638 25.6947 10.638L25.1088 10.6432L24.91 11.9247ZM26.1602 9.75916C26.8507 9.75916 27.4941 10.1358 27.4052 11.0721C27.3005 12.181 26.7042 12.8035 25.7627 12.8035H24.9414C24.8211 12.8035 24.7636 12.8977 24.7374 13.0964L24.5805 14.106C24.5543 14.2577 24.4759 14.3361 24.3608 14.3361H23.5971C23.4768 14.3361 23.4349 14.2577 23.4611 14.0851L24.094 10.0312C24.1254 9.8324 24.2039 9.75916 24.3347 9.75916H26.1602V9.75916Z" fill="#009FE3"/>
<path d="M4.15905 8.1377H6.21477C6.79539 8.1377 7.48062 8.15862 7.94094 8.56139C8.24955 8.8334 8.40648 9.26231 8.36987 9.72786C8.24433 11.2971 7.30278 12.1759 6.04738 12.1759H5.03259C4.85997 12.1759 4.74489 12.291 4.69781 12.5996L4.41536 14.399C4.39967 14.5141 4.34736 14.5821 4.2532 14.5926H2.98735C2.84612 14.5926 2.79902 14.4827 2.83564 14.2525L3.7458 8.47771C3.77718 8.24756 3.90274 8.1377 4.15905 8.1377Z" fill="#143A84"/>
<path d="M4.72412 12.4165L5.08505 10.1463C5.11644 9.94755 5.22628 9.85339 5.44074 9.85339H7.49646C7.83646 9.85339 8.10845 9.90569 8.32814 10.0051C8.12414 11.4017 7.2192 12.1759 6.03703 12.1759H5.02225C4.88625 12.1707 4.78689 12.2439 4.72412 12.4165Z" fill="#1B2D70"/>
</svg>
