<svg width="36" height="24" viewBox="0 0 36 24" fill="none" xmlns="http://www.w3.org/2000/svg">
<path d="M32.5356 23.6063H3.11737C1.69459 23.6063 0.538574 22.4503 0.538574 21.0275V3.18512C0.538574 1.76233 1.69459 0.606323 3.11737 0.606323H32.5356C33.9584 0.606323 35.1144 1.76233 35.1144 3.18512V21.0275C35.1144 22.4555 33.9584 23.6063 32.5356 23.6063Z" fill="white"/>
<path d="M12.9355 16.9055L14.3636 8.51526H16.6495L15.2214 16.9055H12.9355Z" fill="#005098"/>
<path d="M23.5124 8.72451C23.0573 8.55189 22.3512 8.37402 21.4619 8.37402C19.2022 8.37402 17.612 9.50914 17.5963 11.1412C17.5806 12.3442 18.7314 13.019 19.5997 13.4218C20.489 13.835 20.7871 14.0966 20.7819 14.4627C20.7767 15.0277 20.0705 15.284 19.4166 15.284C18.5013 15.284 18.0148 15.1584 17.2668 14.8446L16.9739 14.7086L16.6548 16.5864C17.1883 16.8218 18.177 17.0206 19.2022 17.0311C21.6084 17.0311 23.1672 15.9064 23.1829 14.1646C23.1933 13.2125 22.5813 12.4855 21.2631 11.8839C20.4628 11.4968 19.9764 11.2353 19.9816 10.843C19.9816 10.4925 20.3948 10.1211 21.2893 10.1211C22.0373 10.1107 22.5761 10.2728 22.9998 10.4402L23.2038 10.5344L23.5124 8.72451Z" fill="#005098"/>
<path d="M26.5569 13.9344C26.7452 13.4532 27.4671 11.591 27.4671 11.591C27.4566 11.6119 27.6554 11.1046 27.7705 10.7907L27.9222 11.5125C27.9222 11.5125 28.3615 13.516 28.4505 13.9344H26.5569ZM29.3763 8.52576H27.6083C27.0591 8.52576 26.6511 8.67746 26.4104 9.22147L23.0156 16.9108H25.4166C25.4166 16.9108 25.8089 15.8751 25.8978 15.6502C26.1594 15.6502 28.4923 15.6554 28.8271 15.6554C28.8951 15.9483 29.1043 16.9108 29.1043 16.9108H31.228L29.3763 8.52576Z" fill="#005098"/>
<path d="M11.0161 8.52576L8.77735 14.2483L8.53672 13.087C8.11825 11.7479 6.82101 10.2938 5.37207 9.56669L7.41731 16.9055L9.83396 16.9003L13.4328 8.52576H11.0161Z" fill="#005098"/>
<path d="M6.7007 8.52051H3.01296L2.98682 8.69313C5.85331 9.38884 7.75211 11.0627 8.54196 13.0818L7.74163 9.22666C7.6004 8.69834 7.19763 8.5362 6.7007 8.52051Z" fill="#F7A600"/>
</svg>
